# xmcd CD database file generated by Grip 3.2.0
# 
# Track frame offsets:
#       150
#       17522
#       31170
#       47612
#       62270
#       82917
#       99795
#       116405
#       130545
#       147652
# 
# Disc length: 2212 seconds
# 
# Revision: 3
# Processed by: cddbd v1.5.1PL0 Copyright (c) Steve Scherf et al.
# Submitted via: Grip 3.2.0
# 
DISCID=6b08a20a
DTITLE=John Berry - Saddle The Wind
DYEAR=1994
DGENRE=Country
TTITLE0=That Woman
TTITLE1=Wrong Side of Memphis
TTITLE2=Here In My Heart
TTITLE3=Is it Too Late
TTITLE4=Thunder Road
TTITLE5=No Place Like Home
TTITLE6=Live My Dreams
TTITLE7=Ninety Miles An Hour
TTITLE8=When A Man Loves A Woman
TTITLE9=The Graduation Song
EXTD=
EXTT0=
EXTT1=
EXTT2=
EXTT3=
EXTT4=
EXTT5=
EXTT6=
EXTT7=
EXTT8=
EXTT9=
PLAYORDER=
